<svg width="22" height="20" viewBox="0 0 22 20" fill="none" xmlns="http://www.w3.org/2000/svg">
<path d="M10.6272 17.9488C10.6272 18.9579 9.80918 19.7759 8.80012 19.7759C7.79106 19.7759 6.97308 18.9579 6.97308 17.9488C6.97308 16.9398 7.79107 16.1218 8.80013 16.1218C9.80919 16.1218 10.6272 16.9398 10.6272 17.9488ZM16.198 16.1218C15.1889 16.1218 14.3709 16.9398 14.3709 17.9488C14.3709 18.9579 15.1889 19.7759 16.198 19.7759C17.207 19.7759 18.025 18.9579 18.025 17.9488C18.025 16.9398 17.207 16.1218 16.198 16.1218ZM21.8693 7.54483L19.6211 14.2268C19.6211 14.2268 19.435 15.2184 18.4868 15.2184C17.5387 15.2184 8.26626 15.2184 7.13472 15.2184C6.00318 15.2184 5.95563 13.9755 5.95563 13.9755C5.95563 13.9755 4.74938 5.02637 4.68961 4.48573C4.62983 3.94508 3.93842 3.54436 3.93842 3.54436L0.963524 2.15472C-0.665194 1.30301 0.0751293 -0.317564 0.963524 0.0546403C4.73579 1.83414 6.48813 2.71031 6.60088 3.41124C6.71499 4.11352 6.91331 5.80473 6.91331 5.80473V5.8156C6.9364 5.80881 6.9527 5.80473 6.9527 5.80473C6.9527 5.80473 18.5208 5.80473 20.8573 5.80473C22.5362 5.80473 21.8693 7.54756 21.8693 7.54483ZM18.6173 11.2655L18.5942 11.2668H7.58843L7.81528 13.0654H18.0821L18.6173 11.2655ZM19.689 7.63857H7.13336L7.37516 9.56071C9.7836 9.56071 16.8364 9.56071 19.1212 9.56071L19.689 7.63857Z" fill="white"/>
</svg>
