<svg width="14" height="14" viewBox="0 0 14 14" fill="none" xmlns="http://www.w3.org/2000/svg">
<path d="M11.3206 0.945312H1.80445C0.809498 0.945312 0 1.75465 0 2.74976V8.57341C0 9.56628 0.805973 10.3743 1.79804 10.3779V13.0206L5.59591 10.3779H11.3206C12.3155 10.3779 13.125 9.56836 13.125 8.57341V2.74976C13.125 1.75465 12.3155 0.945312 11.3206 0.945312ZM12.356 8.57341C12.356 9.14427 11.8915 9.60882 11.3206 9.60882H5.35462L2.56708 11.5486V9.60882H1.80445C1.23351 9.60882 0.769043 9.14427 0.769043 8.57341V2.74976C0.769043 2.17874 1.23351 1.71435 1.80445 1.71435H11.3206C11.8915 1.71435 12.356 2.17874 12.356 2.74976V8.57341Z" fill="#737891"/>
</svg>
