<svg width="22" height="26" viewBox="0 0 22 26" fill="none" xmlns="http://www.w3.org/2000/svg">
<path d="M14.3926 0.496094V6.7819H20.6784L14.3926 0.496094Z" fill="#000AFF"/>
<path d="M13.5416 8.47828C13.0736 8.47828 12.6938 8.09849 12.6938 7.63044V0H1.67206C1.20401 0 0.824219 0.379793 0.824219 0.847844V25.1522C0.824219 25.6203 1.20401 26 1.67206 26H20.3242C20.7923 26 21.1721 25.6203 21.1721 25.1522V8.47828H13.5416ZM11.846 20.913H5.06334C4.59529 20.913 4.21549 20.5332 4.21549 20.0652C4.21549 19.5971 4.59529 19.2174 5.06334 19.2174H11.8459C12.314 19.2174 12.6938 19.5971 12.6938 20.0652C12.6938 20.5332 12.314 20.913 11.846 20.913ZM16.9329 17.5217H5.06334C4.59529 17.5217 4.21549 17.1419 4.21549 16.6739C4.21549 16.2058 4.59529 15.826 5.06334 15.826H16.9329C17.401 15.826 17.7808 16.2058 17.7808 16.6739C17.7808 17.1419 17.401 17.5217 16.9329 17.5217ZM16.9329 14.1304H5.06334C4.59529 14.1304 4.21549 13.7506 4.21549 13.2826C4.21549 12.8145 4.59529 12.4348 5.06334 12.4348H16.9329C17.401 12.4348 17.7808 12.8145 17.7808 13.2826C17.7807 13.7506 17.401 14.1304 16.9329 14.1304Z" fill="#000AFF"/>
</svg>
