<svg width="27" height="33" viewBox="0 0 27 33" fill="none" xmlns="http://www.w3.org/2000/svg">
<path d="M17.8047 0.632812V8.61094H25.7828L17.8047 0.632812Z" fill="white"/>
<path d="M16.7273 10.7609C16.1332 10.7609 15.6511 10.2789 15.6511 9.68479V0H1.66205C1.06798 0 0.585938 0.482045 0.585938 1.07611V31.924C0.585938 32.518 1.06798 33.0001 1.66205 33.0001H25.3359C25.93 33.0001 26.412 32.518 26.412 31.924V10.7609H16.7273ZM14.5751 26.5435H5.96636C5.37229 26.5435 4.89025 26.0614 4.89025 25.4674C4.89025 24.8733 5.37229 24.3913 5.96636 24.3913H14.575C15.1691 24.3913 15.6511 24.8733 15.6511 25.4674C15.6511 26.0614 15.1692 26.5435 14.5751 26.5435ZM21.0316 22.2391H5.96636C5.37229 22.2391 4.89025 21.7571 4.89025 21.163C4.89025 20.5689 5.37229 20.0869 5.96636 20.0869H21.0316C21.6257 20.0869 22.1077 20.5689 22.1077 21.163C22.1077 21.7571 21.6257 22.2391 21.0316 22.2391ZM21.0316 17.9348H5.96636C5.37229 17.9348 4.89025 17.4527 4.89025 16.8587C4.89025 16.2646 5.37229 15.7826 5.96636 15.7826H21.0316C21.6257 15.7826 22.1077 16.2646 22.1077 16.8587C22.1077 17.4527 21.6257 17.9348 21.0316 17.9348Z" fill="white"/>
</svg>
