<svg width="18" height="18" viewBox="0 0 18 18" fill="none" xmlns="http://www.w3.org/2000/svg">
<g clip-path="url(#clip0)">
<path d="M17.8086 7.31503L9.27631 1.06787C9.11178 0.947428 8.88826 0.947428 8.7238 1.06787L0.191446 7.31503C-0.0169601 7.46765 -0.0622414 7.76029 0.0903719 7.96869C0.242985 8.1771 0.535661 8.22231 0.744032 8.06977L9.00002 2.02486L17.256 8.06973C17.3393 8.13073 17.436 8.16008 17.5319 8.16008C17.6759 8.16008 17.818 8.09382 17.9096 7.96866C18.0623 7.76029 18.017 7.46765 17.8086 7.31503Z" fill="#0A113C" fill-opacity="0.55"/>
<path d="M15.5494 8.17529C15.2911 8.17529 15.0817 8.38468 15.0817 8.64298V16.0873H11.3403V12.0237C11.3403 10.7342 10.2912 9.68511 9.00172 9.68511C7.71226 9.68511 6.66313 10.7342 6.66313 12.0237V16.0873H2.9217V8.64301C2.9217 8.38472 2.71227 8.17533 2.45401 8.17533C2.19575 8.17533 1.98633 8.38472 1.98633 8.64301V16.555C1.98633 16.8133 2.19575 17.0227 2.45401 17.0227H7.13081C7.37677 17.0227 7.57804 16.8327 7.59667 16.5915C7.59779 16.5805 7.5985 16.5686 7.5985 16.555V12.0237C7.5985 11.25 8.22797 10.6205 9.00172 10.6205C9.77548 10.6205 10.4049 11.25 10.4049 12.0237V16.555C10.4049 16.5685 10.4057 16.5802 10.4068 16.591C10.4252 16.8324 10.6265 17.0227 10.8726 17.0227H15.5494C15.8077 17.0227 16.0171 16.8133 16.0171 16.555V8.64301C16.0171 8.38468 15.8077 8.17529 15.5494 8.17529Z" fill="#0A113C" fill-opacity="0.55"/>
</g>
<defs>
<clipPath id="clip0">
</clipPath>
</defs>
</svg>
