<svg width="26" height="28" viewBox="0 0 26 28" fill="none" xmlns="http://www.w3.org/2000/svg">
<path d="M19.4045 23.9141L18.962 24.91C18.9016 25.0454 18.7809 25.1446 18.6363 25.1775C18.4915 25.2104 18.3399 25.173 18.227 25.0771L17.3987 24.372L17.25 24.4984L18.6457 27.9092L19.0307 27.1199C19.1947 26.7871 19.5778 26.6244 19.9311 26.7373L20.8338 27.0296L19.5684 23.957L19.4045 23.9141Z" fill="#000AFF"/>
<path d="M21.1007 20.2832L21.8129 19.7484L21.1012 19.2154C20.9159 19.0777 20.8585 18.8257 20.9658 18.6215L21.3749 17.8342L20.5041 17.6643C20.2776 17.6212 20.1164 17.4197 20.1237 17.1892L20.1515 16.2989L19.292 16.5239C19.0692 16.5831 18.8365 16.4714 18.7433 16.2606L18.3815 15.4463L17.7044 16.0225C17.5287 16.1732 17.2693 16.173 17.0941 16.0218L16.4177 15.4463L16.0562 16.2601C15.9632 16.4711 15.7303 16.5831 15.5072 16.5239L14.6475 16.2986L14.6753 17.188C14.6834 17.4189 14.5219 17.6214 14.2946 17.6643L13.4241 17.8339L13.8335 18.6217C13.9403 18.8261 13.8826 19.0777 13.6975 19.2154L12.9863 19.7484L13.6985 20.2832C13.8833 20.4211 13.9403 20.6729 13.833 20.8768L13.4241 21.6641L14.2951 21.8337C14.5221 21.8771 14.6836 22.0799 14.6753 22.3108L14.6475 23.1994L15.507 22.9741C15.5465 22.9638 15.587 22.9587 15.6275 22.9587C15.8135 22.9587 15.9816 23.0686 16.0565 23.2387L16.4175 24.0518L17.0946 23.4755C17.2698 23.3256 17.5282 23.3253 17.7037 23.475L18.3813 24.0518L18.7428 23.2385C18.836 23.0274 19.0692 22.9155 19.2923 22.9744L20.1515 23.1994L20.1235 22.3103C20.1159 22.0799 20.2769 21.8779 20.5034 21.8339L21.3749 21.6644L20.9655 20.8763C20.8585 20.6724 20.9159 20.4208 21.1007 20.2832ZM17.3996 22.5506C15.8525 22.5506 14.5982 21.2962 14.5982 19.7491C14.5982 18.2021 15.8525 16.9477 17.3996 16.9477C18.9467 16.9477 20.201 18.2021 20.201 19.7491C20.1993 21.2955 18.946 22.5486 17.3996 22.5506Z" fill="#000AFF"/>
<path d="M17.3984 17.8281C16.337 17.8281 15.4766 18.6886 15.4766 19.75C15.4766 20.8114 16.337 21.6718 17.3984 21.6718C18.4598 21.6718 19.3202 20.8114 19.3202 19.75C19.319 18.689 18.4593 17.8294 17.3984 17.8281Z" fill="#000AFF"/>
<path d="M15.7665 27.2112L16.151 28L16.9413 26.0649L16.5444 25.0955C16.4301 25.1806 16.2831 25.2091 16.1451 25.173C16.0072 25.137 15.8931 25.04 15.8352 24.9097L15.3924 23.9131L15.2712 23.945L13.9629 27.1209L14.8655 26.8284C15.2192 26.7155 15.6023 26.8782 15.7665 27.2112Z" fill="#000AFF"/>
<path d="M12.39 17.7367C12.322 17.609 12.3198 17.4566 12.3841 17.3271C12.4491 17.1945 12.5728 17.1003 12.7178 17.0728L13.7839 16.8667L13.7501 15.7785C13.7454 15.6303 13.8112 15.4884 13.9275 15.3961C14.0436 15.3039 14.1965 15.2717 14.34 15.3095L15.3921 15.5851L15.8346 14.5895C15.8947 14.454 16.0155 14.3546 16.16 14.3217C16.3046 14.2888 16.456 14.3259 16.5691 14.4218L17.3984 15.1272L18.2272 14.4221C18.3401 14.3259 18.492 14.2886 18.6368 14.3217C18.7816 14.3546 18.9021 14.4542 18.9622 14.5899L19.4044 15.5851L20.4573 15.3095C20.6006 15.2717 20.7535 15.3039 20.8693 15.3961C20.9854 15.4884 21.0512 15.63 21.0467 15.7782L21.0126 16.8669L22.079 17.0735C22.2242 17.1015 22.3479 17.196 22.4127 17.329C22.477 17.4579 22.4746 17.61 22.4066 17.7369L22.1462 18.2196H25.8682V0H0.109375V18.2196H12.6501L12.39 17.7367ZM2.49678 4.7748H13.3657C13.6087 4.7748 13.8055 4.97162 13.8055 5.21459C13.8055 5.45755 13.6087 5.65437 13.3657 5.65437H2.49678C2.25381 5.65437 2.05699 5.45755 2.05699 5.21459C2.05699 4.97162 2.25381 4.7748 2.49678 4.7748ZM2.49678 7.41351H23.4179C23.6609 7.41351 23.8577 7.61033 23.8577 7.85329C23.8577 8.09625 23.6609 8.29308 23.4179 8.29308H2.49678C2.25381 8.29308 2.05699 8.09625 2.05699 7.85329C2.05699 7.61033 2.25381 7.41351 2.49678 7.41351ZM2.49678 10.115H23.4179C23.6609 10.115 23.8577 10.3119 23.8577 10.5548C23.8577 10.7978 23.6609 10.9946 23.4179 10.9946H2.49678C2.25381 10.9946 2.05699 10.7978 2.05699 10.5548C2.05699 10.3119 2.25381 10.115 2.49678 10.115ZM2.05699 13.1935C2.05699 12.9506 2.25381 12.7537 2.49678 12.7537H23.4179C23.6609 12.7537 23.8577 12.9506 23.8577 13.1935C23.8577 13.4365 23.6609 13.6333 23.4179 13.6333H2.49678C2.25381 13.6333 2.05699 13.4365 2.05699 13.1935Z" fill="#000AFF"/>
</svg>
