<svg width="14" height="18" viewBox="0 0 14 18" fill="none" xmlns="http://www.w3.org/2000/svg">
<path d="M6.51892 0C2.92437 0 0 2.92437 0 6.51888C0 10.9798 5.83379 17.5287 6.08217 17.8053C6.31547 18.0651 6.72279 18.0647 6.95566 17.8053C7.20404 17.5287 13.0378 10.9798 13.0378 6.51888C13.0378 2.92437 10.1134 0 6.51892 0ZM6.51892 9.79871C4.71041 9.79871 3.23912 8.32739 3.23912 6.51888C3.23912 4.71037 4.71045 3.23909 6.51892 3.23909C8.32739 3.23909 9.79868 4.71041 9.79868 6.51892C9.79868 8.32743 8.32739 9.79871 6.51892 9.79871Z" fill="white"/>
</svg>
