<svg width="18" height="17" viewBox="0 0 18 17" fill="none" xmlns="http://www.w3.org/2000/svg">
<path d="M16.6565 13.4462L14.0252 10.8146C13.5011 10.2925 12.6332 10.3084 12.0908 10.851L10.7651 12.1764C10.6814 12.1302 10.5947 12.082 10.5035 12.0308C9.66637 11.567 8.52059 10.9312 7.31489 9.72462C6.10561 8.5155 5.46926 7.36795 5.00398 6.53026C4.95488 6.44151 4.90784 6.35595 4.86139 6.27469L5.75111 5.38629L6.18853 4.94833C6.73174 4.40498 6.74672 3.53728 6.22383 3.01375L3.59249 0.381834C3.0696 -0.140957 2.20127 -0.125097 1.65807 0.418253L0.916468 1.16411L0.936734 1.18423C0.688065 1.50153 0.48027 1.86748 0.325636 2.26212C0.183092 2.63777 0.0943446 2.99623 0.0537647 3.35543C-0.293686 6.23587 1.02259 8.86838 4.5948 12.4406C9.53269 17.3782 13.512 17.0052 13.6836 16.987C14.0575 16.9423 14.4158 16.8529 14.78 16.7115C15.1712 16.5587 15.5369 16.3512 15.854 16.1031L15.8702 16.1175L16.6215 15.3818C17.1636 14.8385 17.1792 13.9705 16.6565 13.4462Z" fill="#000AFF"/>
</svg>
