<svg width="19" height="12" viewBox="0 0 19 12" fill="none" xmlns="http://www.w3.org/2000/svg">
<path d="M18.4191 5.15227C17.4089 3.85701 16.1004 2.78562 14.635 2.05402C13.1392 1.3072 11.53 0.919707 9.85011 0.899387C9.80384 0.898121 9.61808 0.898121 9.57181 0.899387C7.89197 0.919742 6.28273 1.3072 4.7869 2.05402C3.32155 2.78562 2.01307 3.85697 1.00282 5.15227C0.613643 5.65124 0.613643 6.34821 1.00282 6.84718C2.01304 8.14244 3.32155 9.21382 4.7869 9.94542C6.28273 10.6922 7.89194 11.0797 9.57181 11.1001C9.61808 11.1013 9.80384 11.1013 9.85011 11.1001C11.5299 11.0797 13.1392 10.6922 14.635 9.94542C16.1004 9.21382 17.4089 8.14247 18.4191 6.84718C18.8083 6.34814 18.8083 5.65124 18.4191 5.15227ZM5.11403 9.29029C3.74575 8.60713 2.52379 7.60659 1.58023 6.39683C1.39787 6.16301 1.39787 5.83644 1.58023 5.60262C2.52375 4.39286 3.74571 3.39231 5.11403 2.70916C5.50265 2.51516 5.89949 2.3474 6.30368 2.20537C5.26383 3.1401 4.60869 4.49474 4.60869 5.9997C4.60869 7.50474 5.26387 8.85949 6.30382 9.79418C5.89963 9.65215 5.50268 9.48432 5.11403 9.29029ZM9.71099 10.3697C7.30131 10.3697 5.34093 8.40934 5.34093 5.99967C5.34093 3.58999 7.30131 1.62965 9.71099 1.62965C12.1207 1.62965 14.0811 3.59003 14.0811 5.9997C14.0811 8.40938 12.1207 10.3697 9.71099 10.3697ZM17.8418 6.39679C16.8982 7.60655 15.6763 8.6071 14.308 9.29025C13.9198 9.48403 13.5232 9.65106 13.1195 9.79295C14.1586 8.85825 14.8133 7.50404 14.8133 5.99967C14.8133 4.49449 14.158 3.13968 13.118 2.20495C13.5222 2.34701 13.9193 2.51499 14.308 2.70909C15.6763 3.39224 16.8982 4.39279 17.8418 5.60255C18.0241 5.8364 18.0241 6.16297 17.8418 6.39679Z" fill="#737891"/>
<path d="M9.70998 4.12891C8.67878 4.12891 7.83984 4.96784 7.83984 5.99904C7.83984 7.03024 8.67878 7.86917 9.70998 7.86917C10.7412 7.86917 11.5801 7.03024 11.5801 5.99904C11.5801 4.96784 10.7412 4.12891 9.70998 4.12891ZM9.70998 7.13697C9.08254 7.13697 8.57204 6.62654 8.57204 5.99904C8.57204 5.37157 9.08247 4.86114 9.70998 4.86114C10.3374 4.86114 10.8479 5.37157 10.8479 5.99904C10.8479 6.62654 10.3374 7.13697 9.70998 7.13697Z" fill="#737891"/>
</svg>
