<svg width="236" height="157" viewBox="0 0 236 157" fill="none" xmlns="http://www.w3.org/2000/svg">
<path d="M172.53 135.97V284.721L0.5 185.452V36.7008L172.53 135.97Z" fill="white" stroke="#191E99"/>
<path d="M9.08386 178.902V179.191L9.33402 179.336L161.557 267.145L162.307 267.578V266.712V139.785V139.496L162.056 139.352L9.8337 51.5419L9.08386 51.1094V51.975V178.902ZM164.866 138.159V271.591L7.07227 180.529V47.0963L164.866 138.159Z" fill="white" stroke="#191E99"/>
<path d="M173.529 284.721V135.972L235.499 100.436V248.917L173.529 284.721Z" fill="white" stroke="#191E99"/>
<path d="M207.848 116.278V265.046L202.277 268.061V119.293L207.848 116.278Z" fill="white" stroke="#191E99"/>
<path d="M234.997 99.5712L173.031 135.104L1.00726 35.8391L63.2415 0.575886L234.997 99.5712Z" fill="white" stroke="#191E99"/>
<path d="M207.902 115.171L202.869 118.143L30.8638 18.8883L35.8583 16.1663L207.902 115.171Z" fill="white" stroke="#191E99"/>
<path d="M186.992 84.284L199.141 91.365L166.731 110.21L154.323 103.126L186.992 84.284Z" fill="white" stroke="#191E99"/>
<path d="M185.36 87.8348L187.348 88.9185L163.157 103.106L160.944 102L185.36 87.8348Z" fill="white" stroke="#191E99"/>
<path d="M190.816 90.8578L192.879 92.1696L168.661 106.373L166.598 105.061L190.816 90.8578Z" fill="white" stroke="#191E99"/>
<path d="M199.636 92.2339V95.4539L167.234 114.294V111.074L199.636 92.2339Z" fill="white" stroke="#191E99"/>
<path d="M166.234 114.302L153.818 107.213V103.988L166.234 111.077V114.302Z" fill="white" stroke="#191E99"/>
<path d="M68.9935 16.1703L81.4051 23.2566L49.0029 42.0977L36.5913 35.0114L68.9935 16.1703Z" fill="white" stroke="#191E99"/>
<path d="M67.6314 19.722L69.6198 20.8057L45.4284 34.993L43.2151 33.8873L67.6314 19.722Z" fill="white" stroke="#191E99"/>
<path d="M73.0894 22.7445L75.1526 24.0563L50.9342 38.2594L48.8711 36.9476L73.0894 22.7445Z" fill="white" stroke="#191E99"/>
<path d="M81.9072 24.1211V27.3411L49.5059 46.1817V42.9617L81.9072 24.1211Z" fill="white" stroke="#191E99"/>
<path d="M48.5052 46.1887L36.0898 39.1002V35.8749L48.5052 42.9634V46.1887Z" fill="white" stroke="#191E99"/>
<path d="M88.1614 179.276L79.4004 174.078V128.669L88.1614 133.866V179.276Z" fill="#000AFF"/>
<path d="M66.8047 150.006V138.244L101.027 157.939V169.702L66.8047 150.006Z" fill="#000AFF"/>
</svg>
