<svg width="65" height="75" viewBox="0 0 65 75" fill="none" xmlns="http://www.w3.org/2000/svg">
<path d="M32.4973 23.2119C24.6174 23.2119 18.207 29.6223 18.207 37.5016C18.207 45.3814 24.6174 51.7918 32.4973 51.7918C40.3765 51.7918 46.7869 45.3814 46.7869 37.5016C46.7869 29.6223 40.3765 23.2119 32.4973 23.2119ZM40.9813 34.8105L30.744 45.0478C30.3143 45.4775 29.7507 45.6927 29.1876 45.6927C28.6246 45.6927 28.0615 45.4781 27.6318 45.0478L23.7197 41.1357C22.8602 40.2768 22.8602 38.8835 23.7197 38.024C24.5785 37.1646 25.9718 37.1646 26.8313 38.024L29.1876 40.3803L37.8697 31.6989C38.7286 30.8394 40.1219 30.8394 40.9813 31.6989C41.8408 32.5577 41.8408 33.9511 40.9813 34.8105Z" fill="#000AFF"/>
<path d="M64.3584 20.3494L64.3562 20.291C64.3235 19.5706 64.3018 18.8085 64.2886 17.9604C64.2274 13.8251 60.9401 10.4045 56.8042 10.1733C48.1811 9.69212 41.5104 6.88031 35.8107 1.32479L35.762 1.27844C33.9029 -0.426148 31.0986 -0.426148 29.2389 1.27844L29.1903 1.32479C23.4906 6.88031 16.8198 9.69212 8.19671 10.1739C4.0614 10.4045 0.773517 13.8251 0.712291 17.961C0.699703 18.8033 0.677387 19.5655 0.644771 20.291L0.641338 20.4266C0.473683 29.2197 0.265401 40.1631 3.92636 50.0959C5.93937 55.5582 8.98806 60.3063 12.9872 64.2093C17.5419 68.6542 23.5077 72.183 30.7186 74.6972C30.9532 74.7791 31.197 74.8454 31.4453 74.8952C31.7955 74.965 32.148 74.9999 32.5005 74.9999C32.8529 74.9999 33.206 74.965 33.5556 74.8952C33.8039 74.8454 34.0494 74.7785 34.2852 74.6961C41.4875 72.1773 47.447 68.6468 51.9977 64.2025C55.9951 60.2983 59.0438 55.549 61.0585 50.0856C64.7332 40.123 64.5255 29.159 64.3584 20.3494ZM32.4993 56.1922C22.1928 56.1922 13.8083 47.8077 13.8083 37.5012C13.8083 27.1947 22.1928 18.8102 32.4993 18.8102C42.8053 18.8102 51.1903 27.1947 51.1903 37.5012C51.1903 47.8077 42.8053 56.1922 32.4993 56.1922Z" fill="#6D74FC"/>
</svg>
