<?xml version="1.0" encoding="utf-8"?><svg xmlns="http://www.w3.org/2000/svg" xmlns:xlink="http://www.w3.org/1999/xlink"><symbol viewBox="0 0 19 8" id="arrow" xmlns="http://www.w3.org/2000/svg"><path d="M0 3h15v2H0z"/><path d="M0 3h15v2H0z"/><path d="M0 3h15v2H0z"/><path d="M0 3h15v2H0z"/><path d="M19 4l-6 3.464V.536L19 4z"/></symbol><symbol viewBox="0 0 9 17" id="arrow2" xmlns="http://www.w3.org/2000/svg"><path d="M4.5 2L1 5.5M4.5 2L8 5.5M4.5 2v14"/></symbol><symbol viewBox="0 0 22 20" id="basket" xmlns="http://www.w3.org/2000/svg"><path d="M10.627 17.949a1.827 1.827 0 11-3.654 0 1.827 1.827 0 013.654 0zm5.571-1.827a1.827 1.827 0 100 3.654 1.827 1.827 0 000-3.654zm5.671-8.577l-2.248 6.682s-.186.991-1.134.991H7.135c-1.132 0-1.18-1.242-1.18-1.242S4.75 5.026 4.69 4.486c-.06-.54-.752-.942-.752-.942L.964 2.154c-1.63-.851-.889-2.472 0-2.1C4.736 1.835 6.488 2.71 6.6 3.412c.114.703.312 2.394.312 2.394v.01l.04-.01h13.904c1.68 0 1.012 1.743 1.012 1.74zm-3.252 3.72l-.023.002H7.588l.227 1.798h10.267l.535-1.8zM19.69 7.64H7.133l.242 1.922h11.746l.568-1.922z"/></symbol><symbol viewBox="0 0 15 11" id="check" xmlns="http://www.w3.org/2000/svg"><path d="M14.218 0L5.39 8.826.782 4.217 0 5l5.391 5.392L15 .782 14.218 0z"/></symbol><symbol viewBox="0 0 30 30" id="close" xmlns="http://www.w3.org/2000/svg"><path d="M6.718 8.282l1.414-1.414 14.85 14.849-1.415 1.414z"/><path d="M8.132 23.131l-1.415-1.414 14.85-14.85 1.414 1.415z"/></symbol><symbol viewBox="0 0 14 14" id="comments" xmlns="http://www.w3.org/2000/svg"><path d="M11.32.945H1.805C.81.945 0 1.755 0 2.75v5.823c0 .993.806 1.801 1.798 1.805v2.643l3.798-2.643h5.725c.995 0 1.804-.81 1.804-1.805V2.75c0-.995-.81-1.805-1.804-1.805zm1.036 7.628c0 .571-.464 1.036-1.035 1.036H5.355l-2.788 1.94v-1.94h-.763c-.57 0-1.035-.465-1.035-1.036V2.75c0-.571.465-1.036 1.035-1.036h9.517c.57 0 1.035.465 1.035 1.036v5.823z"/></symbol><symbol viewBox="0 0 13.941 13.94" id="delete" xmlns="http://www.w3.org/2000/svg"><path d="M.001 1.212L1.213 0l12.728 12.728-1.212 1.212z"/><path d="M1.212 13.94L0 12.728 12.728 0l1.212 1.212z"/></symbol><symbol viewBox="0 0 22 26" id="doc" xmlns="http://www.w3.org/2000/svg"><path d="M14.393.496v6.286h6.285L14.393.496z"/><path d="M13.542 8.478a.848.848 0 01-.848-.848V0H1.672a.848.848 0 00-.848.848v24.304c0 .468.38.848.848.848h18.652c.468 0 .848-.38.848-.848V8.478h-7.63zm-1.696 12.435H5.063a.848.848 0 010-1.696h6.783a.848.848 0 010 1.696zm5.087-3.391H5.063a.848.848 0 010-1.696h11.87a.848.848 0 010 1.696zm0-3.392H5.063a.848.848 0 010-1.695h11.87a.848.848 0 010 1.695z"/></symbol><symbol viewBox="0 0 18 18" id="home" xmlns="http://www.w3.org/2000/svg"><g clip-path="url(#iclip0)" fill-opacity=".55"><path d="M17.809 7.315L9.276 1.068a.468.468 0 00-.552 0L.19 7.315a.468.468 0 10.553.755L9 2.025l8.256 6.045a.465.465 0 00.654-.101.468.468 0 00-.101-.654z"/><path d="M15.55 8.175a.468.468 0 00-.468.468v7.444H11.34v-4.063a2.341 2.341 0 00-2.338-2.339 2.341 2.341 0 00-2.339 2.339v4.063H2.922V8.643a.468.468 0 00-.936 0v7.912c0 .258.21.468.468.468h4.677a.467.467 0 00.467-.468v-4.531a1.405 1.405 0 012.806 0v4.531c0 .014.002.025.003.036.018.241.22.432.466.432h4.676c.259 0 .468-.21.468-.468V8.643a.468.468 0 00-.468-.468z"/></g><defs><clipPath id="iclip0"/></defs></symbol><symbol viewBox="0 0 26 28" id="license" xmlns="http://www.w3.org/2000/svg"><path d="M19.404 23.914l-.442.996a.471.471 0 01-.735.167l-.828-.705-.149.126 1.396 3.411.385-.79a.75.75 0 01.9-.382l.903.293-1.266-3.073-.164-.043zm1.696-3.631l.713-.535-.712-.533a.468.468 0 01-.135-.593l.409-.788-.87-.17a.468.468 0 01-.381-.475l.027-.89-.859.225a.468.468 0 01-.549-.263l-.361-.815-.678.577a.468.468 0 01-.61-.001l-.676-.576-.362.814a.469.469 0 01-.549.264l-.86-.225.028.889a.468.468 0 01-.38.476l-.87.17.409.788a.47.47 0 01-.136.593l-.712.533.712.535a.47.47 0 01.135.594l-.409.787.871.17a.469.469 0 01.38.477l-.027.888.859-.225a.469.469 0 01.55.265l.36.813.678-.576a.469.469 0 01.609-.001l.677.577.362-.814a.47.47 0 01.55-.264l.858.225-.027-.889a.47.47 0 01.38-.476l.87-.17-.409-.788a.468.468 0 01.136-.593zm-3.7 2.268a2.802 2.802 0 110-5.604 2.802 2.802 0 010 5.604z"/><path d="M17.398 17.828a1.922 1.922 0 100 3.844 1.922 1.922 0 000-3.844zm-1.631 9.383l.384.789.79-1.935-.397-.97a.47.47 0 01-.709-.185l-.443-.997-.12.032-1.31 3.176.904-.293a.75.75 0 01.9.383z"/><path d="M12.39 17.737a.448.448 0 01-.006-.41.469.469 0 01.334-.254l1.066-.206-.034-1.089a.47.47 0 01.59-.469l1.052.276.443-.996a.47.47 0 01.734-.167l.83.705.828-.705a.47.47 0 01.735.168l.442.995 1.053-.276a.47.47 0 01.59.47l-.034 1.088 1.066.206a.47.47 0 01.334.256.444.444 0 01-.006.408l-.26.483h3.721V0H.11v18.22h12.54l-.26-.483zM2.497 4.775h10.869a.44.44 0 110 .88H2.496a.44.44 0 110-.88zm0 2.639h20.92a.44.44 0 110 .88H2.498a.44.44 0 110-.88zm0 2.701h20.92a.44.44 0 110 .88H2.498a.44.44 0 110-.88zm-.44 3.079a.44.44 0 01.44-.44h20.92a.44.44 0 110 .88H2.498a.44.44 0 01-.44-.44z"/></symbol><symbol viewBox="0 0 13 12" id="like" xmlns="http://www.w3.org/2000/svg"><path d="M6.57 11.04l-.84-.84C2.61 7.44.57 5.58.57 3.3.57 1.44 2.01 0 3.87 0c1.02 0 2.04.48 2.7 1.26C7.23.48 8.25 0 9.27 0c1.86 0 3.3 1.44 3.3 3.3 0 2.28-2.04 4.14-5.16 6.9l-.84.84z"/></symbol><symbol viewBox="0 0 14 18" id="map-mark" xmlns="http://www.w3.org/2000/svg"><path d="M6.519 0A6.526 6.526 0 000 6.519c0 4.46 5.834 11.01 6.082 11.286.233.26.64.26.874 0 .248-.276 6.082-6.825 6.082-11.286A6.526 6.526 0 006.518 0zm0 9.799a3.284 3.284 0 01-3.28-3.28 3.284 3.284 0 013.28-3.28 3.284 3.284 0 013.28 3.28 3.283 3.283 0 01-3.28 3.28z"/></symbol><symbol viewBox="0 0 24 25" id="mark" xmlns="http://www.w3.org/2000/svg"><path d="M13.497.604L.617 13.59a1.124 1.124 0 000 1.59l9.097 9.096c.438.438 1.15.438 1.589 0l12.54-12.88V.604H13.498zM19.4 6.827a1.778 1.778 0 110-3.556 1.778 1.778 0 010 3.556z"/></symbol><symbol viewBox="0 0 28 28" id="message" xmlns="http://www.w3.org/2000/svg"><path d="M14 0C6.263 0 0 6.262 0 14v12.906C0 27.51.49 28 1.094 28H14c7.737 0 14-6.262 14-14 0-7.737-6.262-14-14-14zm0 25.813H2.187V14C2.188 7.472 7.471 2.187 14 2.187c6.528 0 11.813 5.284 11.813 11.813 0 6.528-5.284 11.813-11.813 11.813z"/></symbol><symbol viewBox="0 0 18 17" id="phone" xmlns="http://www.w3.org/2000/svg"><path d="M16.657 13.446l-2.632-2.631c-.524-.522-1.392-.507-1.934.036l-1.326 1.325-.261-.145c-.838-.464-1.983-1.1-3.19-2.306-1.208-1.21-1.845-2.357-2.31-3.195-.05-.088-.096-.174-.143-.255l.89-.889.438-.438c.543-.543.558-1.41.035-1.934L3.592.382c-.522-.523-1.39-.507-1.934.036l-.742.746.02.02a4.288 4.288 0 00-.61 1.078 4.469 4.469 0 00-.272 1.093c-.348 2.88.969 5.513 4.54 9.086 4.939 4.937 8.918 4.564 9.09 4.546a4.448 4.448 0 001.096-.275c.391-.153.757-.36 1.074-.609l.016.014.752-.735c.542-.543.557-1.412.035-1.936z"/></symbol><symbol viewBox="0 0 33 33" id="search" xmlns="http://www.w3.org/2000/svg"><path d="M17.599 19.065l1.414-1.414 8.066 8.066-1.414 1.414z"/><circle cx="13.199" cy="13.199" r="8.333" transform="rotate(-45 13.2 13.2)"/></symbol><symbol viewBox="0 0 19 12" id="views" xmlns="http://www.w3.org/2000/svg"><path d="M18.42 5.152a11.14 11.14 0 00-3.785-3.098A10.917 10.917 0 009.572.899c-1.68.02-3.29.408-4.785 1.155a11.14 11.14 0 00-3.784 3.098 1.376 1.376 0 000 1.695 11.141 11.141 0 003.784 3.098A10.92 10.92 0 009.85 11.1a10.92 10.92 0 004.785-1.155 11.14 11.14 0 003.784-3.098c.39-.499.39-1.196 0-1.695zM5.113 9.29A10.405 10.405 0 011.58 6.397a.645.645 0 010-.794 10.327 10.327 0 014.723-3.397A5.09 5.09 0 004.61 6a5.09 5.09 0 001.695 3.794 10.37 10.37 0 01-1.19-.504zm4.597 1.08C7.3 10.37 5.34 8.41 5.34 6S7.3 1.63 9.71 1.63 14.08 3.59 14.08 6s-1.96 4.37-4.37 4.37zm8.13-3.973a10.405 10.405 0 01-3.533 2.893c-.388.194-.785.361-1.188.503A5.09 5.09 0 0014.813 6a5.09 5.09 0 00-1.695-3.795 10.327 10.327 0 014.724 3.398.645.645 0 010 .794z"/><path d="M9.71 4.129c-1.031 0-1.87.839-1.87 1.87 0 1.031.839 1.87 1.87 1.87 1.031 0 1.87-.839 1.87-1.87 0-1.031-.839-1.87-1.87-1.87zm0 3.008a1.14 1.14 0 111.138-1.138A1.14 1.14 0 019.71 7.137z"/></symbol></svg>