<svg width="51" height="59" viewBox="0 0 51 59" fill="none" xmlns="http://www.w3.org/2000/svg">
<path d="M16.6576 24.3925L16.6119 24.4191V41.7825L13.2591 37.9739L10.1855 39.2435V20.6562L16.6576 24.3925Z" fill="white"/>
<path d="M50.8906 14.8411V44.1597L25.5 58.8189V29.4978L50.8881 14.8398L50.8906 14.8411Z" fill="#000AFF"/>
<path d="M25.4992 29.4972L16.6582 24.3924L42.0463 9.73438H42.0476L50.8873 14.8392L25.4992 29.4972Z" fill="#000AFF" fill-opacity="0.55"/>
<path d="M42.0457 9.73525L16.6576 24.3933L10.1855 20.657L35.5736 5.99902L42.0457 9.73525Z" fill="#F5F7FA"/>
<path d="M35.5764 5.99863L10.1883 20.6566L0.113281 14.8396L25.5014 0.181641L35.5764 5.99863Z" fill="#000AFF"/>
<path d="M25.5 29.4978V58.8189L0.109375 44.1597V14.8411L0.111914 14.8398L10.1869 20.6568V39.244L13.2604 37.9745L16.6133 41.7831V24.4197L16.659 24.3931L25.5 29.4978Z" fill="#6E75FD"/>
</svg>
