<svg width="70" height="58" viewBox="0 0 70 58" fill="none" xmlns="http://www.w3.org/2000/svg">
<path d="M54.6045 12.8252L26.9823 40.4415C26.2378 41.1859 25.0307 41.1859 24.2861 40.4415L12.3955 28.5534L3 37.947L20.9363 55.8797C22.1822 57.1254 23.8721 57.8252 25.6341 57.8252C27.3959 57.8252 29.086 57.1253 30.3318 55.8797L64 22.2186L54.6045 12.8252Z" fill="#000AFF" fill-opacity="0.55"/>
<path d="M28.2278 32.4047L59.2182 1.41421L68.5858 10.7816L30.6573 48.7102C29.4151 49.9523 27.7301 50.6503 25.9736 50.6503C24.2168 50.6503 22.532 49.9524 21.2897 48.7102L1.41421 28.8344L10.7818 19.4668L23.7196 32.4047C24.9645 33.6495 26.9829 33.6495 28.2278 32.4047Z" fill="#000AFF" stroke="#F2F5F9" stroke-width="2"/>
</svg>
