<svg width="50" height="50" viewBox="0 0 50 50" fill="none" xmlns="http://www.w3.org/2000/svg">
<g clip-path="url(#clip0)">
<path d="M48.0914 9.24848L17.4688 2.76788C16.1732 2.49378 14.8891 3.32965 14.615 4.62525L14.0332 8.364L49.3665 15.8411L49.9483 12.1023C50.2224 10.8072 49.387 9.52267 48.0914 9.24848Z" fill="#6E75FD"/>
<path d="M35.2134 16.6341C34.8557 15.3461 33.5096 14.5847 32.222 14.9418L26.4087 16.5556L12.7042 13.6553L11.197 20.7766L1.77993 23.3904C0.492342 23.7476 -0.269019 25.0937 0.0880914 26.3813L5.39515 45.5055C5.75283 46.7931 7.099 47.5549 8.38659 47.1973L38.8286 38.7493C40.1162 38.3916 40.8776 37.046 40.5205 35.7579L39.6095 32.4749L43.0237 33.1967C44.3193 33.4713 45.6034 32.6354 45.8775 31.3398L48.0376 21.1324L35.7396 18.5301L35.2134 16.6341ZM38.729 26.3538L39.4819 22.7956C39.595 22.2628 40.1232 21.9192 40.6559 22.0317L44.2141 22.7851C44.7474 22.8981 45.091 23.4258 44.9785 23.9591L44.2256 27.5173C44.1126 28.0501 43.5844 28.3942 43.0516 28.2812L39.4934 27.5283C38.9597 27.4148 38.616 26.8866 38.729 26.3538ZM2.30967 25.2988L10.7342 22.9617L30.6117 17.4456L32.7506 16.8513C32.7897 16.8408 32.8287 16.8358 32.8667 16.8358C33.0383 16.8358 33.2435 16.9484 33.3034 17.164L33.5546 18.0684L34.3414 20.9037L3.03501 29.5913L1.99701 25.8521C1.93198 25.6174 2.07511 25.3639 2.30967 25.2988ZM38.6115 36.2871C38.6515 36.4321 38.6095 36.5522 38.5669 36.6272C38.5249 36.7022 38.4439 36.8004 38.2988 36.8403L7.85734 45.2883C7.81886 45.2989 7.77932 45.3044 7.74125 45.3044C7.56968 45.3044 7.36453 45.1913 7.30456 44.9757L4.20912 33.8209L35.5155 25.1327L37.4249 32.0125L38.6115 36.2871Z" fill="#000AFF"/>
<path d="M12.7775 37.0509C12.6315 36.5257 12.0832 36.2155 11.5579 36.3611L8.00275 37.3481C7.47799 37.4937 7.16737 38.0424 7.31345 38.5677L8.29989 42.1224C8.44597 42.6476 8.99426 42.9578 9.51951 42.8117L13.0747 41.8252C13.5999 41.6797 13.9101 41.1309 13.7645 40.6056L12.7775 37.0509Z" fill="#6E75FD"/>
</g>
<defs>
<clipPath id="clip0">
<rect width="50" height="50" fill="white"/>
</clipPath>
</defs>
</svg>
