<svg width="75" height="75" viewBox="0 0 75 75" fill="none" xmlns="http://www.w3.org/2000/svg">
<path d="M43.3047 12.5596L15.8198 28.4297L2.34766 20.6514L29.8325 4.78125L43.3047 12.5596Z" fill="#6E75FD"/>
<path d="M29.8315 36.521V68.2642L2.34375 52.394V20.6538L2.34668 20.6523L15.8188 28.4307L29.8315 36.521Z" fill="#000AFF"/>
<path d="M57.3213 20.6538V31.1875H56.2827C55.9526 31.1874 55.6257 31.2524 55.3207 31.3787C55.0157 31.505 54.7385 31.6901 54.5051 31.9236C54.2717 32.157 54.0865 32.4341 53.9602 32.7391C53.8339 33.0441 53.769 33.3711 53.769 33.7012V33.855H49.2031C48.7591 33.8549 48.3195 33.9423 47.9092 34.1122C47.499 34.2821 47.1263 34.5311 46.8123 34.845C46.4984 35.159 46.2493 35.5317 46.0795 35.9419C45.9096 36.3522 45.8222 36.7918 45.8223 37.2358V59.0327L29.832 68.2642V36.521L57.3184 20.6523L57.3213 20.6538Z" fill="#000AFF" fill-opacity="0.75"/>
<path d="M29.833 36.519L15.8203 28.4287L43.3052 12.5586H43.3066L57.3193 20.6504L29.833 36.519Z" fill="#6E75FD"/>
<path d="M73.6587 37.2362V37.2363V66.8409C73.6586 68.0028 73.1972 69.1171 72.3758 69.9389C71.5543 70.7606 70.4402 71.2226 69.2783 71.2231H69.2778H49.2051H49.2049C48.6295 71.223 48.0597 71.1096 47.5282 70.8893C46.9966 70.669 46.5136 70.3461 46.1068 69.9392C45.7001 69.5322 45.3774 69.0491 45.1573 68.5174C44.9373 67.9859 44.8241 67.4161 44.8242 66.8408L73.6587 37.2362ZM73.6587 37.2362C73.6586 36.0744 73.197 34.9602 72.3755 34.1387C71.554 33.3171 70.4397 32.8556 69.2779 32.8555H69.2778H64.7119H63.7119V33.8555V33.8657V33.866C63.712 34.0647 63.6728 34.2615 63.5968 34.4452C63.5208 34.6288 63.4093 34.7957 63.2687 34.9362C63.1282 35.0768 62.9613 35.1882 62.7777 35.2643C62.5941 35.3403 62.3972 35.3794 62.1985 35.3794H62.1982H56.2847H56.2844C56.0857 35.3794 55.8889 35.3403 55.7052 35.2643C55.5216 35.1882 55.3547 35.0768 55.2142 34.9362C55.0736 34.7957 54.9621 34.6288 54.8861 34.4452C54.8101 34.2615 54.771 34.0647 54.771 33.866V33.8657V33.8555V32.8555M73.6587 37.2362L54.771 32.8555M54.771 32.8555H53.771M54.771 32.8555H53.771M53.771 32.8555H49.2053C49.2052 32.8555 49.2051 32.8555 49.2051 32.8555C48.6298 32.8554 48.0601 32.9686 47.5286 33.1888C46.997 33.4089 46.514 33.7316 46.1072 34.1384C45.7003 34.5453 45.3776 35.0283 45.1575 35.5598C44.9374 36.0914 44.8241 36.661 44.8242 37.2363C44.8242 37.2364 44.8242 37.2364 44.8242 37.2365M53.771 32.8555L44.8242 37.2365M44.8242 37.2365V66.8406V37.2365ZM51.3857 52.1479H54.2153V54.979H51.3857V52.1479Z" fill="#6E75FD" stroke="#F2F5F9" stroke-width="2"/>
<path d="M63.1588 36.1877L63.5414 37.1116C63.1151 37.2882 62.6582 37.379 62.1968 37.3789L63.1588 36.1877ZM63.1588 36.1877L63.5414 37.1116C63.9678 36.9351 64.3552 36.6763 64.6815 36.35C65.0078 36.0236 65.2666 35.6362 65.4432 35.2098C65.6197 34.7835 65.7105 34.3266 65.7104 33.8652C65.7104 33.8652 65.7104 33.8651 65.7104 33.865M63.1588 36.1877L65.7104 33.865M52.7695 33.7014C52.7695 33.7013 52.7695 33.7013 52.7695 33.7012C52.7695 33.2398 52.8603 32.7829 53.0368 32.3566C53.2133 31.9302 53.4722 31.5428 53.7985 31.2165C54.1248 30.8901 54.5122 30.6313 54.9386 30.4548C55.3649 30.2782 55.8218 30.1874 56.2832 30.1875C56.2833 30.1875 56.2834 30.1875 56.2834 30.1875M52.7695 33.7014L56.2834 30.1875M52.7695 33.7014L52.7695 33.855L52.7695 33.865C52.7695 33.8651 52.7695 33.8652 52.7695 33.8652C52.7695 34.3266 52.8603 34.7835 53.0368 35.2098C53.2133 35.6362 53.4722 36.0236 53.7985 36.3499C54.1248 36.6763 54.5122 36.9351 54.9386 37.1116C55.3649 37.2882 55.8218 37.379 56.2832 37.3789C56.2833 37.3789 56.2834 37.3789 56.2834 37.3789H62.1965L52.7695 33.7014ZM56.2834 30.1875H62.1965M56.2834 30.1875H62.1965M62.1965 30.1875C62.1966 30.1875 62.1967 30.1875 62.1968 30.1875C62.6582 30.1874 63.1151 30.2782 63.5414 30.4548C63.9678 30.6313 64.3552 30.8901 64.6815 31.2165C65.0078 31.5428 65.2666 31.9302 65.4432 32.3566C65.6197 32.7829 65.7105 33.2398 65.7104 33.7012L62.1965 30.1875ZM65.7104 33.865V33.7014V33.865Z" fill="#000AFF" stroke="#F2F5F9" stroke-width="2"/>
<path d="M55.2124 51.1484H50.3828V55.9795H55.2124V51.1484Z" fill="#6E75FD"/>
<path d="M54.5709 47.4614C54.4363 47.4616 54.3029 47.4352 54.1786 47.3838C54.0542 47.3323 53.9413 47.2567 53.8462 47.1614L52.2066 45.5237C52.1114 45.4285 52.0358 45.3155 51.9843 45.1911C51.9328 45.0666 51.9062 44.9333 51.9062 44.7986C51.9062 44.664 51.9328 44.5306 51.9843 44.4062C52.0358 44.2818 52.1114 44.1688 52.2066 44.0735C52.3018 43.9783 52.4149 43.9028 52.5393 43.8512C52.6637 43.7997 52.797 43.7732 52.9317 43.7732C53.0664 43.7732 53.1997 43.7997 53.3241 43.8512C53.4485 43.9028 53.5616 43.9783 53.6568 44.0735L54.571 44.9869L57.5739 41.9839C57.6691 41.8887 57.7822 41.8132 57.9066 41.7617C58.031 41.7101 58.1644 41.6836 58.299 41.6836C58.4337 41.6836 58.567 41.7101 58.6914 41.7617C58.8159 41.8132 58.9289 41.8887 59.0241 41.9839C59.1193 42.0792 59.1949 42.1922 59.2464 42.3166C59.2979 42.441 59.3245 42.5744 59.3245 42.709C59.3245 42.8437 59.2979 42.977 59.2464 43.1015C59.1949 43.2259 59.1193 43.3389 59.0241 43.4341L55.2961 47.1622C55.2009 47.2573 55.0878 47.3328 54.9633 47.3841C54.8389 47.4355 54.7055 47.4618 54.5709 47.4614Z" fill="white"/>
<path d="M54.5709 56.7778C54.4363 56.778 54.3029 56.7517 54.1786 56.7002C54.0542 56.6487 53.9413 56.5731 53.8462 56.4778L52.2066 54.8401C52.1114 54.7449 52.0358 54.6319 51.9843 54.5075C51.9328 54.383 51.9062 54.2497 51.9062 54.115C51.9062 53.9804 51.9328 53.847 51.9843 53.7226C52.0358 53.5982 52.1114 53.4852 52.2066 53.3899C52.3018 53.2947 52.4149 53.2192 52.5393 53.1677C52.6637 53.1161 52.797 53.0896 52.9317 53.0896C53.0664 53.0896 53.1997 53.1161 53.3241 53.1677C53.4485 53.2192 53.5616 53.2947 53.6568 53.3899L54.571 54.3033L57.5739 51.3003C57.6691 51.2051 57.7822 51.1296 57.9066 51.0781C58.031 51.0265 58.1644 51 58.299 51C58.4337 51 58.567 51.0265 58.6914 51.0781C58.8159 51.1296 58.9289 51.2051 59.0241 51.3003C59.1193 51.3956 59.1949 51.5086 59.2464 51.633C59.2979 51.7574 59.3245 51.8908 59.3245 52.0254C59.3245 52.1601 59.2979 52.2935 59.2464 52.4179C59.1949 52.5423 59.1193 52.6553 59.0241 52.7505L55.2961 56.4786C55.2009 56.5737 55.0878 56.6492 54.9633 56.7005C54.8389 56.7519 54.7055 56.7782 54.5709 56.7778Z" fill="white"/>
<path d="M54.5709 66.395C54.4363 66.3952 54.3029 66.3688 54.1786 66.3174C54.0542 66.2659 53.9413 66.1903 53.8462 66.095L52.2066 64.4573C52.1114 64.3621 52.0358 64.2491 51.9843 64.1246C51.9328 64.0002 51.9062 63.8669 51.9062 63.7322C51.9062 63.5976 51.9328 63.4642 51.9843 63.3398C52.0358 63.2154 52.1114 63.1024 52.2066 63.0071C52.3018 62.9119 52.4149 62.8364 52.5393 62.7848C52.6637 62.7333 52.797 62.7068 52.9317 62.7068C53.0664 62.7068 53.1997 62.7333 53.3241 62.7848C53.4485 62.8364 53.5616 62.9119 53.6568 63.0071L54.571 63.9205L57.5739 60.9175C57.6691 60.8223 57.7822 60.7468 57.9066 60.6952C58.031 60.6437 58.1644 60.6172 58.299 60.6172C58.4337 60.6172 58.567 60.6437 58.6914 60.6952C58.8159 60.7468 58.9289 60.8223 59.0241 60.9175C59.1193 61.0128 59.1949 61.1258 59.2464 61.2502C59.2979 61.3746 59.3245 61.508 59.3245 61.6426C59.3245 61.7773 59.2979 61.9106 59.2464 62.0351C59.1949 62.1595 59.1193 62.2725 59.0241 62.3677L55.2961 66.0958C55.2009 66.1909 55.0878 66.2664 54.9633 66.3177C54.8389 66.3691 54.7055 66.3954 54.5709 66.395Z" fill="white"/>
<path d="M68.0952 45.1953H61.6543C61.3823 45.1953 61.1215 45.0873 60.9292 44.895C60.7369 44.7027 60.6289 44.4419 60.6289 44.1699C60.6289 43.898 60.7369 43.6372 60.9292 43.4449C61.1215 43.2526 61.3823 43.1445 61.6543 43.1445H68.0952C68.3672 43.1445 68.628 43.2526 68.8203 43.4449C69.0126 43.6372 69.1206 43.898 69.1206 44.1699C69.1206 44.4419 69.0126 44.7027 68.8203 44.895C68.628 45.0873 68.3672 45.1953 68.0952 45.1953Z" fill="white"/>
<path d="M68.0952 54.5898H61.6543C61.3823 54.5898 61.1215 54.4818 60.9292 54.2895C60.7369 54.0972 60.6289 53.8364 60.6289 53.5645C60.6289 53.2925 60.7369 53.0317 60.9292 52.8394C61.1215 52.6471 61.3823 52.5391 61.6543 52.5391H68.0952C68.3672 52.5391 68.628 52.6471 68.8203 52.8394C69.0126 53.0317 69.1206 53.2925 69.1206 53.5645C69.1206 53.8364 69.0126 54.0972 68.8203 54.2895C68.628 54.4818 68.3672 54.5898 68.0952 54.5898Z" fill="white"/>
<path d="M68.0952 63.9805H61.6543C61.3823 63.9805 61.1215 63.8724 60.9292 63.6801C60.7369 63.4878 60.6289 63.227 60.6289 62.9551C60.6289 62.6831 60.7369 62.4223 60.9292 62.23C61.1215 62.0377 61.3823 61.9297 61.6543 61.9297H68.0952C68.3672 61.9297 68.628 62.0377 68.8203 62.23C69.0126 62.4223 69.1206 62.6831 69.1206 62.9551C69.1206 63.227 69.0126 63.4878 68.8203 63.6801C68.628 63.8724 68.3672 63.9805 68.0952 63.9805Z" fill="white"/>
</svg>
