<svg width="139" height="21" viewBox="0 0 139 21" fill="none" xmlns="http://www.w3.org/2000/svg">
<path d="M104.794 16.2174V11.4946H103.032V18.8312H104.525L108.797 14.049V18.8312H110.56V11.4946H109.066L104.794 16.2174ZM123.734 16.2768V11.4946H121.971V18.8312H123.465L127.737 14.0193V18.8312H129.499V11.4946H127.946L123.734 16.2768ZM118.177 14.3461H114.294V11.4946H112.531V18.8312H114.294V15.95H118.177V18.8312H119.94V11.4946H118.177V14.3461ZM96.6688 11.4946L92.4268 18.8312H94.5179L97.2961 13.9896L100.104 18.8312H102.285L98.0429 11.4946H96.6688ZM137.416 11.4946L133.234 16.2768V11.4946H131.471V18.8312H132.965L137.237 14.0193V18.8312H138.999V11.4946H137.416ZM94.488 11.4946H86.243V13.0985H93.5321L94.488 11.4946ZM86.243 14.3461V15.95H91.889L92.845 14.3461H86.243ZM47.1987 11.4946H38.9537V13.0985H46.2428L47.1987 11.4946ZM32.4115 9.89062H30.9776L26.7356 17.2273H25.6602V20.9995H27.3331V18.8312H35.9963V20.9995H37.6692V17.2273H36.5937L32.4115 9.89062ZM28.8267 17.2273L31.6049 12.3857L34.413 17.2273H28.8267ZM59.4766 11.3164C56.5192 11.3164 55.1151 13.1282 55.1151 15.1183C55.1151 17.2273 56.4893 18.9203 59.4766 18.9203C60.791 18.9203 63.8082 18.3263 63.8082 15.1183C63.8082 13.0391 62.4639 11.3164 59.4766 11.3164ZM59.4766 17.3164C57.7738 17.3164 57.0569 16.3362 57.0569 15.1481C57.0569 13.8411 57.8933 12.95 59.4766 12.95C61.2989 12.95 61.8963 13.8411 61.8963 15.1481C61.8963 16.7223 60.7014 17.3164 59.4766 17.3164ZM49.3795 11.4946L45.1375 18.8312H47.2286L50.0068 13.9896L52.8149 18.8312H54.9956L50.7835 11.4946H49.3795ZM82.5089 18.8312H84.2714V11.4946H82.5089V18.8312ZM79.1631 14.1381H76.4745V11.4946H74.712V18.8312H76.0861H76.4745H79.1332C80.3281 18.8312 81.5828 18.1778 81.5828 16.4253C81.5828 14.1679 79.9995 14.1381 79.1631 14.1381ZM79.0734 17.2867H76.4745V15.653H79.0734C79.3722 15.653 79.8501 15.7421 79.8501 16.4847C79.8203 17.1381 79.4618 17.2867 79.0734 17.2867ZM38.9836 14.3461V15.95H44.6296L45.5856 14.3461H38.9836ZM86.243 18.8312H90.246L91.1721 17.2273H86.243V18.8312ZM71.5454 14.4946C72.0234 14.2867 72.4117 13.9896 72.4117 13.1877C72.4117 11.6728 71.1272 11.4946 70.231 11.4946H65.4513V18.8312H70.3206C72.5611 18.8312 73.0092 17.6134 73.0092 16.4847C72.9793 15.2372 72.2623 14.7322 71.5454 14.4946ZM67.1839 13.0391H70.0219C70.4401 13.0391 70.6193 13.2471 70.6193 13.6926C70.6193 14.1381 70.3505 14.3461 70.0219 14.3461H67.1839V13.0391ZM70.2907 17.2867H67.1839V15.7124H70.2907C70.7986 15.7124 71.157 15.8312 71.157 16.4847C71.157 17.0193 70.9479 17.2867 70.2907 17.2867ZM38.9836 18.8312H42.9866L43.9127 17.2273H38.9836V18.8312Z" fill="black"/>
<path d="M13.7115 13.3067L6.3627 7.87109L4.57031 10.9899L12.9647 14.584L13.7115 13.3067Z" fill="#E7AF23"/>
<path d="M14.847 11.3764L8.54377 4.12891L6.78125 7.18831L14.1002 12.624L14.847 11.3764Z" fill="#E7AF23"/>
<path d="M16.1903 9.0297L10.9624 0L8.96094 3.41584L15.2642 10.6337L16.1903 9.0297Z" fill="#E7AF23"/>
<path d="M0 18.8612H10.4855L11.4116 17.2572L1.97163 15.4453" fill="#E7AF23"/>
<path d="M11.4102 18.8617H14.1884L16.638 14.6439L19.1174 18.8617H21.8957L16.638 9.83203L11.4102 18.8617Z" fill="#E7AF23"/>
<path d="M2.39062 14.7313L11.8306 16.5432L12.5774 15.2659L4.18302 11.6719L2.39062 14.7313Z" fill="#E7AF23"/>
</svg>
