<svg width="60" height="58" viewBox="0 0 60 58" fill="none" xmlns="http://www.w3.org/2000/svg">
<path d="M57.938 32.188C59.313 30.6131 60.0007 28.7508 60.0007 26.6006C60.0007 24.6506 59.2872 22.9634 57.8652 21.5376C56.4402 20.112 54.7529 19.3996 52.803 19.3996H42.416C42.5158 19.0497 42.6159 18.7497 42.7157 18.4998C42.8146 18.2498 42.9536 17.9745 43.1279 17.6745C43.3023 17.3744 43.4278 17.1493 43.5025 16.9995C43.9524 16.15 44.2967 15.4496 44.5345 14.9C44.7718 14.3494 45.0081 13.5997 45.2464 12.6497C45.4842 11.7002 45.6024 10.7498 45.6024 9.79977C45.6024 9.20005 45.5952 8.71211 45.5834 8.33738C45.5717 7.96239 45.508 7.39971 45.3965 6.6496C45.2833 5.89989 45.133 5.27482 44.946 4.77506C44.7582 4.27516 44.4579 3.71222 44.0461 3.08767C43.6334 2.46195 43.1337 1.9564 42.5457 1.56867C41.9578 1.18121 41.208 0.856261 40.2956 0.593966C39.3822 0.331408 38.3516 0.200195 37.2009 0.200195C36.551 0.200195 35.9889 0.437798 35.5135 0.912871C35.0136 1.41277 34.5879 2.0377 34.2383 2.78742C33.8881 3.53753 33.6442 4.18755 33.5065 4.73775C33.369 5.28769 33.2126 6.05041 33.0383 7.02512C32.8125 8.07561 32.6445 8.83137 32.5313 9.29383C32.419 9.7563 32.1997 10.3625 31.875 11.1123C31.5496 11.8627 31.1626 12.4623 30.7124 12.9125C29.8876 13.7373 28.6252 15.2374 26.9249 17.4122C25.6995 19.012 24.4372 20.5244 23.1373 21.9495C21.8371 23.3749 20.8872 24.1122 20.2874 24.1623C19.6628 24.2122 19.1252 24.4685 18.6751 24.9312C18.225 25.3936 18 25.9375 18 26.5623V50.5997C18 51.2497 18.2373 51.8057 18.7124 52.2682C19.1872 52.7312 19.7498 52.9748 20.3998 52.9999C21.2747 53.025 23.2497 53.5744 26.3249 54.6504C28.2496 55.2993 29.7556 55.7939 30.8431 56.1309C31.9304 56.4679 33.4502 56.8307 35.3987 57.2187C37.349 57.606 39.1487 57.8003 40.7982 57.8003H41.4359H44.2861H45.6358C48.9616 57.7504 51.423 56.775 53.0235 54.8755C54.473 53.1503 55.0852 50.8877 54.861 48.0877C55.8359 47.1628 56.5114 45.9883 56.8858 44.563C57.3102 43.0389 57.3102 41.5762 56.8858 40.1765C58.0356 38.6514 58.5732 36.939 58.4977 35.0389C58.5009 34.2381 58.3138 33.2884 57.938 32.188Z" fill="#000AFF"/>
<path d="M13.2001 24.2002H2.40045C1.75003 24.2002 1.18749 24.4378 0.712544 24.9129C0.237602 25.3877 0 25.9502 0 26.6003V50.6011C0 51.2502 0.237602 51.813 0.712675 52.2885C1.18801 52.7628 1.75056 53.0005 2.40058 53.0005H13.2001C13.85 53.0005 14.4123 52.7628 14.8875 52.2885C15.3624 51.813 15.5999 51.2503 15.5999 50.6011V26.6003C15.5999 25.9502 15.3623 25.3878 14.8875 24.9129C14.4124 24.4377 13.8501 24.2002 13.2001 24.2002ZM8.88742 47.5065C8.41248 47.9689 7.85006 48.2001 7.20004 48.2001C6.52493 48.2001 5.95608 47.9689 5.49388 47.5065C5.03141 47.044 4.80025 46.4754 4.80025 45.8003C4.80025 45.1504 5.03128 44.5877 5.49388 44.1129C5.95621 43.6379 6.52493 43.4 7.20004 43.4C7.85006 43.4 8.41248 43.6379 8.88742 44.1129C9.3625 44.5876 9.6001 45.1503 9.6001 45.8003C9.6001 46.4754 9.36302 47.0439 8.88742 47.5065Z" fill="#6E75FD"/>
</svg>
